%TF.GenerationSoftware,KiCad,Pcbnew,(5.1.10)-1*%
%TF.CreationDate,2021-07-11T18:10:03+05:30*%
%TF.ProjectId,pcb_flip,7063625f-666c-4697-902e-6b696361645f,rev?*%
%TF.SameCoordinates,Original*%
%TF.FileFunction,Legend,Top*%
%TF.FilePolarity,Positive*%
%FSLAX46Y46*%
G04 Gerber Fmt 4.6, Leading zero omitted, Abs format (unit mm)*
G04 Created by KiCad (PCBNEW (5.1.10)-1) date 2021-07-11 18:10:03*
%MOMM*%
%LPD*%
G01*
G04 APERTURE LIST*
%ADD10C,0.120000*%
%ADD11C,0.150000*%
G04 APERTURE END LIST*
D10*
%TO.C,D2*%
X121264000Y-93428500D02*
X124354000Y-93428500D01*
X125309000Y-90868500D02*
G75*
G03*
X125309000Y-90868500I-2500000J0D01*
G01*
X122808538Y-87878500D02*
G75*
G02*
X124353830Y-93428500I462J-2990000D01*
G01*
X122809462Y-87878500D02*
G75*
G03*
X121264170Y-93428500I-462J-2990000D01*
G01*
%TO.C,U2*%
X82737000Y-82557000D02*
X72457000Y-82557000D01*
X82737000Y-103117000D02*
X82737000Y-82557000D01*
X72457000Y-103117000D02*
X82737000Y-103117000D01*
X72457000Y-82557000D02*
X72457000Y-103117000D01*
X80247000Y-82617000D02*
X78597000Y-82617000D01*
X80247000Y-103057000D02*
X80247000Y-82617000D01*
X74947000Y-103057000D02*
X80247000Y-103057000D01*
X74947000Y-82617000D02*
X74947000Y-103057000D01*
X76597000Y-82617000D02*
X74947000Y-82617000D01*
X78597000Y-82617000D02*
G75*
G02*
X76597000Y-82617000I-1000000J0D01*
G01*
%TO.C,SW1*%
X109988000Y-45011000D02*
X109488000Y-45011000D01*
X109988000Y-45751000D02*
X109988000Y-45011000D01*
X103415000Y-48888000D02*
X103462000Y-48842000D01*
X101118000Y-51186000D02*
X101153000Y-51150000D01*
X103222000Y-48672000D02*
X103257000Y-48637000D01*
X100913000Y-50980000D02*
X100960000Y-50934000D01*
X99628000Y-55172000D02*
X99628000Y-45251000D01*
X109748000Y-55172000D02*
X109748000Y-45251000D01*
X109748000Y-45251000D02*
X99628000Y-45251000D01*
X109748000Y-55172000D02*
X99628000Y-55172000D01*
X109748000Y-52212000D02*
X99628000Y-52212000D01*
X109748000Y-47311000D02*
X99628000Y-47311000D01*
X109748000Y-45811000D02*
X99628000Y-45811000D01*
X103868000Y-49911000D02*
G75*
G03*
X103868000Y-49911000I-1680000J0D01*
G01*
X107159195Y-48230747D02*
G75*
G02*
X107872000Y-48376000I28805J-1680253D01*
G01*
X108723426Y-49227958D02*
G75*
G02*
X108723000Y-50595000I-1535426J-683042D01*
G01*
X107871042Y-51446426D02*
G75*
G02*
X106504000Y-51446000I-683042J1535426D01*
G01*
X105652574Y-50594042D02*
G75*
G02*
X105653000Y-49227000I1535426J683042D01*
G01*
X106504682Y-48376244D02*
G75*
G02*
X107188000Y-48231000I683318J-1534756D01*
G01*
%TO.C,J7*%
X116519000Y-76260000D02*
X115189000Y-76260000D01*
X116519000Y-74930000D02*
X116519000Y-76260000D01*
X116519000Y-73660000D02*
X113859000Y-73660000D01*
X113859000Y-73660000D02*
X113859000Y-63440000D01*
X116519000Y-73660000D02*
X116519000Y-63440000D01*
X116519000Y-63440000D02*
X113859000Y-63440000D01*
%TO.C,J6*%
X83499000Y-71053000D02*
X82169000Y-71053000D01*
X83499000Y-69723000D02*
X83499000Y-71053000D01*
X83499000Y-68453000D02*
X80839000Y-68453000D01*
X80839000Y-68453000D02*
X80839000Y-65853000D01*
X83499000Y-68453000D02*
X83499000Y-65853000D01*
X83499000Y-65853000D02*
X80839000Y-65853000D01*
%TO.C,J5*%
X60314500Y-90608500D02*
X60314500Y-91108500D01*
X61054500Y-90608500D02*
X60314500Y-90608500D01*
X64191500Y-97181500D02*
X64145500Y-97134500D01*
X66489500Y-99478500D02*
X66453500Y-99443500D01*
X63975500Y-97374500D02*
X63940500Y-97339500D01*
X66283500Y-99683500D02*
X66237500Y-99636500D01*
X70475500Y-100968500D02*
X60554500Y-100968500D01*
X70475500Y-90848500D02*
X60554500Y-90848500D01*
X60554500Y-90848500D02*
X60554500Y-100968500D01*
X70475500Y-90848500D02*
X70475500Y-100968500D01*
X67515500Y-90848500D02*
X67515500Y-100968500D01*
X62614500Y-90848500D02*
X62614500Y-100968500D01*
X61114500Y-90848500D02*
X61114500Y-100968500D01*
X66894500Y-98408500D02*
G75*
G03*
X66894500Y-98408500I-1680000J0D01*
G01*
X63534247Y-93437305D02*
G75*
G02*
X63679500Y-92724500I1680253J28805D01*
G01*
X64531458Y-91873074D02*
G75*
G02*
X65898500Y-91873500I683042J-1535426D01*
G01*
X66749926Y-92725458D02*
G75*
G02*
X66749500Y-94092500I-1535426J-683042D01*
G01*
X65897542Y-94943926D02*
G75*
G02*
X64530500Y-94943500I-683042J1535426D01*
G01*
X63679744Y-94091818D02*
G75*
G02*
X63534500Y-93408500I1534756J683318D01*
G01*
%TO.C,J4*%
X60187500Y-79242000D02*
X60187500Y-79742000D01*
X60927500Y-79242000D02*
X60187500Y-79242000D01*
X64064500Y-85815000D02*
X64018500Y-85768000D01*
X66362500Y-88112000D02*
X66326500Y-88077000D01*
X63848500Y-86008000D02*
X63813500Y-85973000D01*
X66156500Y-88317000D02*
X66110500Y-88270000D01*
X70348500Y-89602000D02*
X60427500Y-89602000D01*
X70348500Y-79482000D02*
X60427500Y-79482000D01*
X60427500Y-79482000D02*
X60427500Y-89602000D01*
X70348500Y-79482000D02*
X70348500Y-89602000D01*
X67388500Y-79482000D02*
X67388500Y-89602000D01*
X62487500Y-79482000D02*
X62487500Y-89602000D01*
X60987500Y-79482000D02*
X60987500Y-89602000D01*
X66767500Y-87042000D02*
G75*
G03*
X66767500Y-87042000I-1680000J0D01*
G01*
X63407247Y-82070805D02*
G75*
G02*
X63552500Y-81358000I1680253J28805D01*
G01*
X64404458Y-80506574D02*
G75*
G02*
X65771500Y-80507000I683042J-1535426D01*
G01*
X66622926Y-81358958D02*
G75*
G02*
X66622500Y-82726000I-1535426J-683042D01*
G01*
X65770542Y-83577426D02*
G75*
G02*
X64403500Y-83577000I-683042J1535426D01*
G01*
X63552744Y-82725318D02*
G75*
G02*
X63407500Y-82042000I1534756J683318D01*
G01*
%TO.C,J3*%
X65782500Y-70672000D02*
X64452500Y-70672000D01*
X65782500Y-69342000D02*
X65782500Y-70672000D01*
X65782500Y-68072000D02*
X63122500Y-68072000D01*
X63122500Y-68072000D02*
X63122500Y-62932000D01*
X65782500Y-68072000D02*
X65782500Y-62932000D01*
X65782500Y-62932000D02*
X63122500Y-62932000D01*
%TO.C,J2*%
X75819000Y-61154000D02*
X77149000Y-61154000D01*
X77149000Y-61154000D02*
X77149000Y-62484000D01*
X77149000Y-63754000D02*
X77149000Y-71434000D01*
X74489000Y-71434000D02*
X77149000Y-71434000D01*
X74489000Y-63754000D02*
X74489000Y-71434000D01*
X74489000Y-63754000D02*
X77149000Y-63754000D01*
%TO.C,U1*%
X78763500Y-49244500D02*
X89003500Y-49244500D01*
X78763500Y-53885500D02*
X89003500Y-53885500D01*
X78763500Y-49244500D02*
X78763500Y-53885500D01*
X89003500Y-49244500D02*
X89003500Y-53885500D01*
X78763500Y-50754500D02*
X89003500Y-50754500D01*
X82033500Y-49244500D02*
X82033500Y-50754500D01*
X85734500Y-49244500D02*
X85734500Y-50754500D01*
%TO.C,R5*%
X115316000Y-80923000D02*
X115316000Y-81693000D01*
X115316000Y-89003000D02*
X115316000Y-88233000D01*
X113946000Y-81693000D02*
X113946000Y-88233000D01*
X116686000Y-81693000D02*
X113946000Y-81693000D01*
X116686000Y-88233000D02*
X116686000Y-81693000D01*
X113946000Y-88233000D02*
X116686000Y-88233000D01*
%TO.C,R4*%
X115252500Y-94131000D02*
X115252500Y-94901000D01*
X115252500Y-102211000D02*
X115252500Y-101441000D01*
X113882500Y-94901000D02*
X113882500Y-101441000D01*
X116622500Y-94901000D02*
X113882500Y-94901000D01*
X116622500Y-101441000D02*
X116622500Y-94901000D01*
X113882500Y-101441000D02*
X116622500Y-101441000D01*
%TO.C,R3*%
X110807500Y-94004000D02*
X110807500Y-94774000D01*
X110807500Y-102084000D02*
X110807500Y-101314000D01*
X109437500Y-94774000D02*
X109437500Y-101314000D01*
X112177500Y-94774000D02*
X109437500Y-94774000D01*
X112177500Y-101314000D02*
X112177500Y-94774000D01*
X109437500Y-101314000D02*
X112177500Y-101314000D01*
%TO.C,R2*%
X75882500Y-46887000D02*
X75882500Y-47657000D01*
X75882500Y-54967000D02*
X75882500Y-54197000D01*
X74512500Y-47657000D02*
X74512500Y-54197000D01*
X77252500Y-47657000D02*
X74512500Y-47657000D01*
X77252500Y-54197000D02*
X77252500Y-47657000D01*
X74512500Y-54197000D02*
X77252500Y-54197000D01*
%TO.C,R1*%
X71120000Y-46760000D02*
X71120000Y-47530000D01*
X71120000Y-54840000D02*
X71120000Y-54070000D01*
X69750000Y-47530000D02*
X69750000Y-54070000D01*
X72490000Y-47530000D02*
X69750000Y-47530000D01*
X72490000Y-54070000D02*
X72490000Y-47530000D01*
X69750000Y-54070000D02*
X72490000Y-54070000D01*
%TO.C,J1*%
X111753500Y-45921500D02*
X111753500Y-48421500D01*
X114253500Y-45921500D02*
X111753500Y-45921500D01*
X113553500Y-52941500D02*
X112053500Y-52941500D01*
X113553500Y-53941500D02*
X113553500Y-52941500D01*
X113553500Y-47221500D02*
X112053500Y-47221500D01*
X113553500Y-46221500D02*
X113553500Y-47221500D01*
X114363500Y-53441500D02*
X114363500Y-53941500D01*
X115573500Y-53441500D02*
X114363500Y-53441500D01*
X115573500Y-46721500D02*
X115573500Y-53441500D01*
X114363500Y-46721500D02*
X115573500Y-46721500D01*
X114363500Y-46221500D02*
X114363500Y-46721500D01*
X116073500Y-53941500D02*
X116073500Y-46221500D01*
X112053500Y-53941500D02*
X116073500Y-53941500D01*
X112053500Y-46221500D02*
X112053500Y-53941500D01*
X116073500Y-46221500D02*
X112053500Y-46221500D01*
%TO.C,D3*%
X121200500Y-84030500D02*
X124290500Y-84030500D01*
X125245500Y-81470500D02*
G75*
G03*
X125245500Y-81470500I-2500000J0D01*
G01*
X122745038Y-78480500D02*
G75*
G02*
X124290330Y-84030500I462J-2990000D01*
G01*
X122745962Y-78480500D02*
G75*
G03*
X121200670Y-84030500I-462J-2990000D01*
G01*
%TO.C,D1*%
X124354000Y-96754000D02*
X121264000Y-96754000D01*
X125309000Y-99314000D02*
G75*
G03*
X125309000Y-99314000I-2500000J0D01*
G01*
X122809462Y-102304000D02*
G75*
G02*
X121264170Y-96754000I-462J2990000D01*
G01*
X122808538Y-102304000D02*
G75*
G03*
X124353830Y-96754000I462J2990000D01*
G01*
%TO.C,C2*%
X92763000Y-47171775D02*
X93263000Y-47171775D01*
X93013000Y-47421775D02*
X93013000Y-46921775D01*
X95548000Y-42221003D02*
G75*
G02*
X95548000Y-47012997I-1060000J-2395997D01*
G01*
X93428000Y-42221003D02*
G75*
G03*
X93428000Y-47012997I1060000J-2395997D01*
G01*
%TO.C,C1*%
X92763000Y-55045775D02*
X93263000Y-55045775D01*
X93013000Y-55295775D02*
X93013000Y-54795775D01*
X95548000Y-50095003D02*
G75*
G02*
X95548000Y-54886997I-1060000J-2395997D01*
G01*
X93428000Y-50095003D02*
G75*
G03*
X93428000Y-54886997I1060000J-2395997D01*
G01*
%TO.C,A1*%
X92202000Y-63246000D02*
X92202000Y-60706000D01*
X92202000Y-60706000D02*
X89532000Y-60706000D01*
X89532000Y-63246000D02*
X89532000Y-101476000D01*
X89532000Y-58036000D02*
X89532000Y-60706000D01*
X104902000Y-60706000D02*
X107572000Y-60706000D01*
X104902000Y-60706000D02*
X104902000Y-98806000D01*
X104902000Y-98806000D02*
X107572000Y-98806000D01*
X92202000Y-63246000D02*
X89532000Y-63246000D01*
X92202000Y-63246000D02*
X92202000Y-98806000D01*
X92202000Y-98806000D02*
X89532000Y-98806000D01*
X89532000Y-101476000D02*
X107572000Y-101476000D01*
X107572000Y-101476000D02*
X107572000Y-58036000D01*
X107572000Y-58036000D02*
X89532000Y-58036000D01*
%TO.C,D2*%
D11*
X119301380Y-91606595D02*
X118301380Y-91606595D01*
X118301380Y-91368500D01*
X118349000Y-91225642D01*
X118444238Y-91130404D01*
X118539476Y-91082785D01*
X118729952Y-91035166D01*
X118872809Y-91035166D01*
X119063285Y-91082785D01*
X119158523Y-91130404D01*
X119253761Y-91225642D01*
X119301380Y-91368500D01*
X119301380Y-91606595D01*
X118396619Y-90654214D02*
X118349000Y-90606595D01*
X118301380Y-90511357D01*
X118301380Y-90273261D01*
X118349000Y-90178023D01*
X118396619Y-90130404D01*
X118491857Y-90082785D01*
X118587095Y-90082785D01*
X118729952Y-90130404D01*
X119301380Y-90701833D01*
X119301380Y-90082785D01*
%TO.C,U2*%
X76263595Y-81049880D02*
X76263595Y-81859404D01*
X76311214Y-81954642D01*
X76358833Y-82002261D01*
X76454071Y-82049880D01*
X76644547Y-82049880D01*
X76739785Y-82002261D01*
X76787404Y-81954642D01*
X76835023Y-81859404D01*
X76835023Y-81049880D01*
X77263595Y-81145119D02*
X77311214Y-81097500D01*
X77406452Y-81049880D01*
X77644547Y-81049880D01*
X77739785Y-81097500D01*
X77787404Y-81145119D01*
X77835023Y-81240357D01*
X77835023Y-81335595D01*
X77787404Y-81478452D01*
X77215976Y-82049880D01*
X77835023Y-82049880D01*
%TO.C,SW1*%
X103251166Y-44410261D02*
X103394023Y-44457880D01*
X103632119Y-44457880D01*
X103727357Y-44410261D01*
X103774976Y-44362642D01*
X103822595Y-44267404D01*
X103822595Y-44172166D01*
X103774976Y-44076928D01*
X103727357Y-44029309D01*
X103632119Y-43981690D01*
X103441642Y-43934071D01*
X103346404Y-43886452D01*
X103298785Y-43838833D01*
X103251166Y-43743595D01*
X103251166Y-43648357D01*
X103298785Y-43553119D01*
X103346404Y-43505500D01*
X103441642Y-43457880D01*
X103679738Y-43457880D01*
X103822595Y-43505500D01*
X104155928Y-43457880D02*
X104394023Y-44457880D01*
X104584500Y-43743595D01*
X104774976Y-44457880D01*
X105013071Y-43457880D01*
X105917833Y-44457880D02*
X105346404Y-44457880D01*
X105632119Y-44457880D02*
X105632119Y-43457880D01*
X105536880Y-43600738D01*
X105441642Y-43695976D01*
X105346404Y-43743595D01*
%TO.C,J7*%
X117625880Y-70119833D02*
X118340166Y-70119833D01*
X118483023Y-70167452D01*
X118578261Y-70262690D01*
X118625880Y-70405547D01*
X118625880Y-70500785D01*
X117625880Y-69738880D02*
X117625880Y-69072214D01*
X118625880Y-69500785D01*
X112180666Y-75746928D02*
X112180666Y-75270738D01*
X112466380Y-75842166D02*
X111466380Y-75508833D01*
X112466380Y-75175500D01*
X112466380Y-74699309D02*
X112418761Y-74794547D01*
X112323523Y-74842166D01*
X111466380Y-74842166D01*
X111799714Y-74461214D02*
X111799714Y-74080261D01*
X111466380Y-74318357D02*
X112323523Y-74318357D01*
X112418761Y-74270738D01*
X112466380Y-74175500D01*
X112466380Y-74080261D01*
X112418761Y-73365976D02*
X112466380Y-73461214D01*
X112466380Y-73651690D01*
X112418761Y-73746928D01*
X112323523Y-73794547D01*
X111942571Y-73794547D01*
X111847333Y-73746928D01*
X111799714Y-73651690D01*
X111799714Y-73461214D01*
X111847333Y-73365976D01*
X111942571Y-73318357D01*
X112037809Y-73318357D01*
X112133047Y-73794547D01*
X112466380Y-72889785D02*
X111799714Y-72889785D01*
X111990190Y-72889785D02*
X111894952Y-72842166D01*
X111847333Y-72794547D01*
X111799714Y-72699309D01*
X111799714Y-72604071D01*
X111799714Y-72270738D02*
X112466380Y-72270738D01*
X111894952Y-72270738D02*
X111847333Y-72223119D01*
X111799714Y-72127880D01*
X111799714Y-71985023D01*
X111847333Y-71889785D01*
X111942571Y-71842166D01*
X112466380Y-71842166D01*
X112466380Y-70937404D02*
X111942571Y-70937404D01*
X111847333Y-70985023D01*
X111799714Y-71080261D01*
X111799714Y-71270738D01*
X111847333Y-71365976D01*
X112418761Y-70937404D02*
X112466380Y-71032642D01*
X112466380Y-71270738D01*
X112418761Y-71365976D01*
X112323523Y-71413595D01*
X112228285Y-71413595D01*
X112133047Y-71365976D01*
X112085428Y-71270738D01*
X112085428Y-71032642D01*
X112037809Y-70937404D01*
X111799714Y-70604071D02*
X111799714Y-70223119D01*
X111466380Y-70461214D02*
X112323523Y-70461214D01*
X112418761Y-70413595D01*
X112466380Y-70318357D01*
X112466380Y-70223119D01*
X112418761Y-69508833D02*
X112466380Y-69604071D01*
X112466380Y-69794547D01*
X112418761Y-69889785D01*
X112323523Y-69937404D01*
X111942571Y-69937404D01*
X111847333Y-69889785D01*
X111799714Y-69794547D01*
X111799714Y-69604071D01*
X111847333Y-69508833D01*
X111942571Y-69461214D01*
X112037809Y-69461214D01*
X112133047Y-69937404D01*
X111799714Y-68270738D02*
X112799714Y-68270738D01*
X111847333Y-68270738D02*
X111799714Y-68175500D01*
X111799714Y-67985023D01*
X111847333Y-67889785D01*
X111894952Y-67842166D01*
X111990190Y-67794547D01*
X112275904Y-67794547D01*
X112371142Y-67842166D01*
X112418761Y-67889785D01*
X112466380Y-67985023D01*
X112466380Y-68175500D01*
X112418761Y-68270738D01*
X112466380Y-67365976D02*
X111799714Y-67365976D01*
X111466380Y-67365976D02*
X111514000Y-67413595D01*
X111561619Y-67365976D01*
X111514000Y-67318357D01*
X111466380Y-67365976D01*
X111561619Y-67365976D01*
X111799714Y-66889785D02*
X112466380Y-66889785D01*
X111894952Y-66889785D02*
X111847333Y-66842166D01*
X111799714Y-66746928D01*
X111799714Y-66604071D01*
X111847333Y-66508833D01*
X111942571Y-66461214D01*
X112466380Y-66461214D01*
X112418761Y-66032642D02*
X112466380Y-65937404D01*
X112466380Y-65746928D01*
X112418761Y-65651690D01*
X112323523Y-65604071D01*
X112275904Y-65604071D01*
X112180666Y-65651690D01*
X112133047Y-65746928D01*
X112133047Y-65889785D01*
X112085428Y-65985023D01*
X111990190Y-66032642D01*
X111942571Y-66032642D01*
X111847333Y-65985023D01*
X111799714Y-65889785D01*
X111799714Y-65746928D01*
X111847333Y-65651690D01*
%TO.C,J6*%
X82089666Y-71969380D02*
X82089666Y-72683666D01*
X82042047Y-72826523D01*
X81946809Y-72921761D01*
X81803952Y-72969380D01*
X81708714Y-72969380D01*
X82994428Y-71969380D02*
X82803952Y-71969380D01*
X82708714Y-72017000D01*
X82661095Y-72064619D01*
X82565857Y-72207476D01*
X82518238Y-72397952D01*
X82518238Y-72778904D01*
X82565857Y-72874142D01*
X82613476Y-72921761D01*
X82708714Y-72969380D01*
X82899190Y-72969380D01*
X82994428Y-72921761D01*
X83042047Y-72874142D01*
X83089666Y-72778904D01*
X83089666Y-72540809D01*
X83042047Y-72445571D01*
X82994428Y-72397952D01*
X82899190Y-72350333D01*
X82708714Y-72350333D01*
X82613476Y-72397952D01*
X82565857Y-72445571D01*
X82518238Y-72540809D01*
X79557571Y-77397547D02*
X79557571Y-77064214D01*
X80081380Y-76921357D02*
X80081380Y-77397547D01*
X79081380Y-77397547D01*
X79081380Y-76921357D01*
X79081380Y-76588023D02*
X80081380Y-75921357D01*
X79081380Y-75921357D02*
X80081380Y-76588023D01*
X79081380Y-75683261D02*
X79081380Y-75111833D01*
X80081380Y-75397547D02*
X79081380Y-75397547D01*
X79557571Y-74778500D02*
X79557571Y-74445166D01*
X80081380Y-74302309D02*
X80081380Y-74778500D01*
X79081380Y-74778500D01*
X79081380Y-74302309D01*
X80081380Y-73302309D02*
X79605190Y-73635642D01*
X80081380Y-73873738D02*
X79081380Y-73873738D01*
X79081380Y-73492785D01*
X79129000Y-73397547D01*
X79176619Y-73349928D01*
X79271857Y-73302309D01*
X79414714Y-73302309D01*
X79509952Y-73349928D01*
X79557571Y-73397547D01*
X79605190Y-73492785D01*
X79605190Y-73873738D01*
X80081380Y-72873738D02*
X79081380Y-72873738D01*
X80081380Y-72302309D01*
X79081380Y-72302309D01*
X79795666Y-71873738D02*
X79795666Y-71397547D01*
X80081380Y-71968976D02*
X79081380Y-71635642D01*
X80081380Y-71302309D01*
X80081380Y-70492785D02*
X80081380Y-70968976D01*
X79081380Y-70968976D01*
X80081380Y-68826119D02*
X79605190Y-69159452D01*
X80081380Y-69397547D02*
X79081380Y-69397547D01*
X79081380Y-69016595D01*
X79129000Y-68921357D01*
X79176619Y-68873738D01*
X79271857Y-68826119D01*
X79414714Y-68826119D01*
X79509952Y-68873738D01*
X79557571Y-68921357D01*
X79605190Y-69016595D01*
X79605190Y-69397547D01*
X79557571Y-68397547D02*
X79557571Y-68064214D01*
X80081380Y-67921357D02*
X80081380Y-68397547D01*
X79081380Y-68397547D01*
X79081380Y-67921357D01*
X80033761Y-67540404D02*
X80081380Y-67397547D01*
X80081380Y-67159452D01*
X80033761Y-67064214D01*
X79986142Y-67016595D01*
X79890904Y-66968976D01*
X79795666Y-66968976D01*
X79700428Y-67016595D01*
X79652809Y-67064214D01*
X79605190Y-67159452D01*
X79557571Y-67349928D01*
X79509952Y-67445166D01*
X79462333Y-67492785D01*
X79367095Y-67540404D01*
X79271857Y-67540404D01*
X79176619Y-67492785D01*
X79129000Y-67445166D01*
X79081380Y-67349928D01*
X79081380Y-67111833D01*
X79129000Y-66968976D01*
X79557571Y-66540404D02*
X79557571Y-66207071D01*
X80081380Y-66064214D02*
X80081380Y-66540404D01*
X79081380Y-66540404D01*
X79081380Y-66064214D01*
X79081380Y-65778500D02*
X79081380Y-65207071D01*
X80081380Y-65492785D02*
X79081380Y-65492785D01*
X80462333Y-63826119D02*
X80414714Y-63873738D01*
X80271857Y-63968976D01*
X80176619Y-64016595D01*
X80033761Y-64064214D01*
X79795666Y-64111833D01*
X79605190Y-64111833D01*
X79367095Y-64064214D01*
X79224238Y-64016595D01*
X79129000Y-63968976D01*
X78986142Y-63873738D01*
X78938523Y-63826119D01*
X80081380Y-63445166D02*
X79081380Y-63445166D01*
X80081380Y-62873738D01*
X79081380Y-62873738D01*
X79081380Y-62207071D02*
X79081380Y-62016595D01*
X79129000Y-61921357D01*
X79224238Y-61826119D01*
X79414714Y-61778500D01*
X79748047Y-61778500D01*
X79938523Y-61826119D01*
X80033761Y-61921357D01*
X80081380Y-62016595D01*
X80081380Y-62207071D01*
X80033761Y-62302309D01*
X79938523Y-62397547D01*
X79748047Y-62445166D01*
X79414714Y-62445166D01*
X79224238Y-62397547D01*
X79129000Y-62302309D01*
X79081380Y-62207071D01*
X80462333Y-61445166D02*
X80414714Y-61397547D01*
X80271857Y-61302309D01*
X80176619Y-61254690D01*
X80033761Y-61207071D01*
X79795666Y-61159452D01*
X79605190Y-61159452D01*
X79367095Y-61207071D01*
X79224238Y-61254690D01*
X79129000Y-61302309D01*
X78986142Y-61397547D01*
X78938523Y-61445166D01*
%TO.C,J5*%
X68413380Y-96154833D02*
X69127666Y-96154833D01*
X69270523Y-96202452D01*
X69365761Y-96297690D01*
X69413380Y-96440547D01*
X69413380Y-96535785D01*
X68413380Y-95202452D02*
X68413380Y-95678642D01*
X68889571Y-95726261D01*
X68841952Y-95678642D01*
X68794333Y-95583404D01*
X68794333Y-95345309D01*
X68841952Y-95250071D01*
X68889571Y-95202452D01*
X68984809Y-95154833D01*
X69222904Y-95154833D01*
X69318142Y-95202452D01*
X69365761Y-95250071D01*
X69413380Y-95345309D01*
X69413380Y-95583404D01*
X69365761Y-95678642D01*
X69318142Y-95726261D01*
X60006880Y-96718023D02*
X59006880Y-96718023D01*
X59721166Y-96384690D01*
X59006880Y-96051357D01*
X60006880Y-96051357D01*
X60006880Y-95051357D02*
X60006880Y-95622785D01*
X60006880Y-95337071D02*
X59006880Y-95337071D01*
X59149738Y-95432309D01*
X59244976Y-95527547D01*
X59292595Y-95622785D01*
%TO.C,J4*%
X68095880Y-84788333D02*
X68810166Y-84788333D01*
X68953023Y-84835952D01*
X69048261Y-84931190D01*
X69095880Y-85074047D01*
X69095880Y-85169285D01*
X68429214Y-83883571D02*
X69095880Y-83883571D01*
X68048261Y-84121666D02*
X68762547Y-84359761D01*
X68762547Y-83740714D01*
X59879880Y-85351523D02*
X58879880Y-85351523D01*
X59594166Y-85018190D01*
X58879880Y-84684857D01*
X59879880Y-84684857D01*
X58975119Y-84256285D02*
X58927500Y-84208666D01*
X58879880Y-84113428D01*
X58879880Y-83875333D01*
X58927500Y-83780095D01*
X58975119Y-83732476D01*
X59070357Y-83684857D01*
X59165595Y-83684857D01*
X59308452Y-83732476D01*
X59879880Y-84303904D01*
X59879880Y-83684857D01*
%TO.C,J3*%
X66889380Y-67135333D02*
X67603666Y-67135333D01*
X67746523Y-67182952D01*
X67841761Y-67278190D01*
X67889380Y-67421047D01*
X67889380Y-67516285D01*
X66889380Y-66754380D02*
X66889380Y-66135333D01*
X67270333Y-66468666D01*
X67270333Y-66325809D01*
X67317952Y-66230571D01*
X67365571Y-66182952D01*
X67460809Y-66135333D01*
X67698904Y-66135333D01*
X67794142Y-66182952D01*
X67841761Y-66230571D01*
X67889380Y-66325809D01*
X67889380Y-66611523D01*
X67841761Y-66706761D01*
X67794142Y-66754380D01*
X62126761Y-68595642D02*
X62174380Y-68452785D01*
X62174380Y-68214690D01*
X62126761Y-68119452D01*
X62079142Y-68071833D01*
X61983904Y-68024214D01*
X61888666Y-68024214D01*
X61793428Y-68071833D01*
X61745809Y-68119452D01*
X61698190Y-68214690D01*
X61650571Y-68405166D01*
X61602952Y-68500404D01*
X61555333Y-68548023D01*
X61460095Y-68595642D01*
X61364857Y-68595642D01*
X61269619Y-68548023D01*
X61222000Y-68500404D01*
X61174380Y-68405166D01*
X61174380Y-68167071D01*
X61222000Y-68024214D01*
X62126761Y-67214690D02*
X62174380Y-67309928D01*
X62174380Y-67500404D01*
X62126761Y-67595642D01*
X62031523Y-67643261D01*
X61650571Y-67643261D01*
X61555333Y-67595642D01*
X61507714Y-67500404D01*
X61507714Y-67309928D01*
X61555333Y-67214690D01*
X61650571Y-67167071D01*
X61745809Y-67167071D01*
X61841047Y-67643261D01*
X62174380Y-66738500D02*
X61507714Y-66738500D01*
X61698190Y-66738500D02*
X61602952Y-66690880D01*
X61555333Y-66643261D01*
X61507714Y-66548023D01*
X61507714Y-66452785D01*
X61507714Y-66214690D02*
X62174380Y-65976595D01*
X61507714Y-65738500D01*
X62174380Y-65214690D02*
X62126761Y-65309928D01*
X62079142Y-65357547D01*
X61983904Y-65405166D01*
X61698190Y-65405166D01*
X61602952Y-65357547D01*
X61555333Y-65309928D01*
X61507714Y-65214690D01*
X61507714Y-65071833D01*
X61555333Y-64976595D01*
X61602952Y-64928976D01*
X61698190Y-64881357D01*
X61983904Y-64881357D01*
X62079142Y-64928976D01*
X62126761Y-64976595D01*
X62174380Y-65071833D01*
X62174380Y-65214690D01*
%TO.C,J2*%
X75422166Y-72223380D02*
X75422166Y-72937666D01*
X75374547Y-73080523D01*
X75279309Y-73175761D01*
X75136452Y-73223380D01*
X75041214Y-73223380D01*
X75850738Y-72318619D02*
X75898357Y-72271000D01*
X75993595Y-72223380D01*
X76231690Y-72223380D01*
X76326928Y-72271000D01*
X76374547Y-72318619D01*
X76422166Y-72413857D01*
X76422166Y-72509095D01*
X76374547Y-72651952D01*
X75803119Y-73223380D01*
X76422166Y-73223380D01*
X73540880Y-69722571D02*
X73064690Y-70055904D01*
X73540880Y-70294000D02*
X72540880Y-70294000D01*
X72540880Y-69913047D01*
X72588500Y-69817809D01*
X72636119Y-69770190D01*
X72731357Y-69722571D01*
X72874214Y-69722571D01*
X72969452Y-69770190D01*
X73017071Y-69817809D01*
X73064690Y-69913047D01*
X73064690Y-70294000D01*
X72540880Y-69389238D02*
X73540880Y-68722571D01*
X72540880Y-68722571D02*
X73540880Y-69389238D01*
X73493261Y-67627333D02*
X73540880Y-67484476D01*
X73540880Y-67246380D01*
X73493261Y-67151142D01*
X73445642Y-67103523D01*
X73350404Y-67055904D01*
X73255166Y-67055904D01*
X73159928Y-67103523D01*
X73112309Y-67151142D01*
X73064690Y-67246380D01*
X73017071Y-67436857D01*
X72969452Y-67532095D01*
X72921833Y-67579714D01*
X72826595Y-67627333D01*
X72731357Y-67627333D01*
X72636119Y-67579714D01*
X72588500Y-67532095D01*
X72540880Y-67436857D01*
X72540880Y-67198761D01*
X72588500Y-67055904D01*
X73540880Y-66055904D02*
X73064690Y-66389238D01*
X73540880Y-66627333D02*
X72540880Y-66627333D01*
X72540880Y-66246380D01*
X72588500Y-66151142D01*
X72636119Y-66103523D01*
X72731357Y-66055904D01*
X72874214Y-66055904D01*
X72969452Y-66103523D01*
X73017071Y-66151142D01*
X73064690Y-66246380D01*
X73064690Y-66627333D01*
X72540880Y-65722571D02*
X73540880Y-65055904D01*
X72540880Y-65055904D02*
X73540880Y-65722571D01*
X72969452Y-64532095D02*
X72921833Y-64627333D01*
X72874214Y-64674952D01*
X72778976Y-64722571D01*
X72731357Y-64722571D01*
X72636119Y-64674952D01*
X72588500Y-64627333D01*
X72540880Y-64532095D01*
X72540880Y-64341619D01*
X72588500Y-64246380D01*
X72636119Y-64198761D01*
X72731357Y-64151142D01*
X72778976Y-64151142D01*
X72874214Y-64198761D01*
X72921833Y-64246380D01*
X72969452Y-64341619D01*
X72969452Y-64532095D01*
X73017071Y-64627333D01*
X73064690Y-64674952D01*
X73159928Y-64722571D01*
X73350404Y-64722571D01*
X73445642Y-64674952D01*
X73493261Y-64627333D01*
X73540880Y-64532095D01*
X73540880Y-64341619D01*
X73493261Y-64246380D01*
X73445642Y-64198761D01*
X73350404Y-64151142D01*
X73159928Y-64151142D01*
X73064690Y-64198761D01*
X73017071Y-64246380D01*
X72969452Y-64341619D01*
X72969452Y-63579714D02*
X72921833Y-63674952D01*
X72874214Y-63722571D01*
X72778976Y-63770190D01*
X72731357Y-63770190D01*
X72636119Y-63722571D01*
X72588500Y-63674952D01*
X72540880Y-63579714D01*
X72540880Y-63389238D01*
X72588500Y-63294000D01*
X72636119Y-63246380D01*
X72731357Y-63198761D01*
X72778976Y-63198761D01*
X72874214Y-63246380D01*
X72921833Y-63294000D01*
X72969452Y-63389238D01*
X72969452Y-63579714D01*
X73017071Y-63674952D01*
X73064690Y-63722571D01*
X73159928Y-63770190D01*
X73350404Y-63770190D01*
X73445642Y-63722571D01*
X73493261Y-63674952D01*
X73540880Y-63579714D01*
X73540880Y-63389238D01*
X73493261Y-63294000D01*
X73445642Y-63246380D01*
X73350404Y-63198761D01*
X73159928Y-63198761D01*
X73064690Y-63246380D01*
X73017071Y-63294000D01*
X72969452Y-63389238D01*
X72636119Y-62817809D02*
X72588500Y-62770190D01*
X72540880Y-62674952D01*
X72540880Y-62436857D01*
X72588500Y-62341619D01*
X72636119Y-62294000D01*
X72731357Y-62246380D01*
X72826595Y-62246380D01*
X72969452Y-62294000D01*
X73540880Y-62865428D01*
X73540880Y-62246380D01*
%TO.C,U1*%
X83121595Y-47696880D02*
X83121595Y-48506404D01*
X83169214Y-48601642D01*
X83216833Y-48649261D01*
X83312071Y-48696880D01*
X83502547Y-48696880D01*
X83597785Y-48649261D01*
X83645404Y-48601642D01*
X83693023Y-48506404D01*
X83693023Y-47696880D01*
X84693023Y-48696880D02*
X84121595Y-48696880D01*
X84407309Y-48696880D02*
X84407309Y-47696880D01*
X84312071Y-47839738D01*
X84216833Y-47934976D01*
X84121595Y-47982595D01*
%TO.C,R5*%
X113398380Y-85129666D02*
X112922190Y-85463000D01*
X113398380Y-85701095D02*
X112398380Y-85701095D01*
X112398380Y-85320142D01*
X112446000Y-85224904D01*
X112493619Y-85177285D01*
X112588857Y-85129666D01*
X112731714Y-85129666D01*
X112826952Y-85177285D01*
X112874571Y-85224904D01*
X112922190Y-85320142D01*
X112922190Y-85701095D01*
X112398380Y-84224904D02*
X112398380Y-84701095D01*
X112874571Y-84748714D01*
X112826952Y-84701095D01*
X112779333Y-84605857D01*
X112779333Y-84367761D01*
X112826952Y-84272523D01*
X112874571Y-84224904D01*
X112969809Y-84177285D01*
X113207904Y-84177285D01*
X113303142Y-84224904D01*
X113350761Y-84272523D01*
X113398380Y-84367761D01*
X113398380Y-84605857D01*
X113350761Y-84701095D01*
X113303142Y-84748714D01*
%TO.C,R4*%
X113334880Y-98337666D02*
X112858690Y-98671000D01*
X113334880Y-98909095D02*
X112334880Y-98909095D01*
X112334880Y-98528142D01*
X112382500Y-98432904D01*
X112430119Y-98385285D01*
X112525357Y-98337666D01*
X112668214Y-98337666D01*
X112763452Y-98385285D01*
X112811071Y-98432904D01*
X112858690Y-98528142D01*
X112858690Y-98909095D01*
X112668214Y-97480523D02*
X113334880Y-97480523D01*
X112287261Y-97718619D02*
X113001547Y-97956714D01*
X113001547Y-97337666D01*
%TO.C,R3*%
X108889880Y-98210666D02*
X108413690Y-98544000D01*
X108889880Y-98782095D02*
X107889880Y-98782095D01*
X107889880Y-98401142D01*
X107937500Y-98305904D01*
X107985119Y-98258285D01*
X108080357Y-98210666D01*
X108223214Y-98210666D01*
X108318452Y-98258285D01*
X108366071Y-98305904D01*
X108413690Y-98401142D01*
X108413690Y-98782095D01*
X107889880Y-97877333D02*
X107889880Y-97258285D01*
X108270833Y-97591619D01*
X108270833Y-97448761D01*
X108318452Y-97353523D01*
X108366071Y-97305904D01*
X108461309Y-97258285D01*
X108699404Y-97258285D01*
X108794642Y-97305904D01*
X108842261Y-97353523D01*
X108889880Y-97448761D01*
X108889880Y-97734476D01*
X108842261Y-97829714D01*
X108794642Y-97877333D01*
%TO.C,R2*%
X74239380Y-50966666D02*
X73763190Y-51300000D01*
X74239380Y-51538095D02*
X73239380Y-51538095D01*
X73239380Y-51157142D01*
X73287000Y-51061904D01*
X73334619Y-51014285D01*
X73429857Y-50966666D01*
X73572714Y-50966666D01*
X73667952Y-51014285D01*
X73715571Y-51061904D01*
X73763190Y-51157142D01*
X73763190Y-51538095D01*
X73334619Y-50585714D02*
X73287000Y-50538095D01*
X73239380Y-50442857D01*
X73239380Y-50204761D01*
X73287000Y-50109523D01*
X73334619Y-50061904D01*
X73429857Y-50014285D01*
X73525095Y-50014285D01*
X73667952Y-50061904D01*
X74239380Y-50633333D01*
X74239380Y-50014285D01*
%TO.C,R1*%
X69202380Y-50966666D02*
X68726190Y-51300000D01*
X69202380Y-51538095D02*
X68202380Y-51538095D01*
X68202380Y-51157142D01*
X68250000Y-51061904D01*
X68297619Y-51014285D01*
X68392857Y-50966666D01*
X68535714Y-50966666D01*
X68630952Y-51014285D01*
X68678571Y-51061904D01*
X68726190Y-51157142D01*
X68726190Y-51538095D01*
X69202380Y-50014285D02*
X69202380Y-50585714D01*
X69202380Y-50300000D02*
X68202380Y-50300000D01*
X68345238Y-50395238D01*
X68440476Y-50490476D01*
X68488095Y-50585714D01*
%TO.C,J1*%
X116615880Y-50414833D02*
X117330166Y-50414833D01*
X117473023Y-50462452D01*
X117568261Y-50557690D01*
X117615880Y-50700547D01*
X117615880Y-50795785D01*
X117615880Y-49414833D02*
X117615880Y-49986261D01*
X117615880Y-49700547D02*
X116615880Y-49700547D01*
X116758738Y-49795785D01*
X116853976Y-49891023D01*
X116901595Y-49986261D01*
X118387880Y-54387261D02*
X118387880Y-53720595D01*
X119387880Y-54149166D01*
X119292642Y-53339642D02*
X119340261Y-53292023D01*
X119387880Y-53339642D01*
X119340261Y-53387261D01*
X119292642Y-53339642D01*
X119387880Y-53339642D01*
X118721214Y-52434880D02*
X119387880Y-52434880D01*
X118340261Y-52672976D02*
X119054547Y-52911071D01*
X119054547Y-52292023D01*
X118387880Y-51292023D02*
X119387880Y-50958690D01*
X118387880Y-50625357D01*
X119387880Y-49053928D02*
X119387880Y-49530119D01*
X118387880Y-49530119D01*
X119387880Y-48720595D02*
X118387880Y-48720595D01*
X119387880Y-48244404D02*
X118387880Y-48244404D01*
X118387880Y-47863452D01*
X118435500Y-47768214D01*
X118483119Y-47720595D01*
X118578357Y-47672976D01*
X118721214Y-47672976D01*
X118816452Y-47720595D01*
X118864071Y-47768214D01*
X118911690Y-47863452D01*
X118911690Y-48244404D01*
X118387880Y-47053928D02*
X118387880Y-46863452D01*
X118435500Y-46768214D01*
X118530738Y-46672976D01*
X118721214Y-46625357D01*
X119054547Y-46625357D01*
X119245023Y-46672976D01*
X119340261Y-46768214D01*
X119387880Y-46863452D01*
X119387880Y-47053928D01*
X119340261Y-47149166D01*
X119245023Y-47244404D01*
X119054547Y-47292023D01*
X118721214Y-47292023D01*
X118530738Y-47244404D01*
X118435500Y-47149166D01*
X118387880Y-47053928D01*
%TO.C,D3*%
X119237880Y-82208595D02*
X118237880Y-82208595D01*
X118237880Y-81970500D01*
X118285500Y-81827642D01*
X118380738Y-81732404D01*
X118475976Y-81684785D01*
X118666452Y-81637166D01*
X118809309Y-81637166D01*
X118999785Y-81684785D01*
X119095023Y-81732404D01*
X119190261Y-81827642D01*
X119237880Y-81970500D01*
X119237880Y-82208595D01*
X118237880Y-81303833D02*
X118237880Y-80684785D01*
X118618833Y-81018119D01*
X118618833Y-80875261D01*
X118666452Y-80780023D01*
X118714071Y-80732404D01*
X118809309Y-80684785D01*
X119047404Y-80684785D01*
X119142642Y-80732404D01*
X119190261Y-80780023D01*
X119237880Y-80875261D01*
X119237880Y-81160976D01*
X119190261Y-81256214D01*
X119142642Y-81303833D01*
%TO.C,D1*%
X127198380Y-100242595D02*
X126198380Y-100242595D01*
X126198380Y-100004500D01*
X126246000Y-99861642D01*
X126341238Y-99766404D01*
X126436476Y-99718785D01*
X126626952Y-99671166D01*
X126769809Y-99671166D01*
X126960285Y-99718785D01*
X127055523Y-99766404D01*
X127150761Y-99861642D01*
X127198380Y-100004500D01*
X127198380Y-100242595D01*
X127198380Y-98718785D02*
X127198380Y-99290214D01*
X127198380Y-99004500D02*
X126198380Y-99004500D01*
X126341238Y-99099738D01*
X126436476Y-99194976D01*
X126484095Y-99290214D01*
%TO.C,C2*%
X91095142Y-44783666D02*
X91142761Y-44831285D01*
X91190380Y-44974142D01*
X91190380Y-45069380D01*
X91142761Y-45212238D01*
X91047523Y-45307476D01*
X90952285Y-45355095D01*
X90761809Y-45402714D01*
X90618952Y-45402714D01*
X90428476Y-45355095D01*
X90333238Y-45307476D01*
X90238000Y-45212238D01*
X90190380Y-45069380D01*
X90190380Y-44974142D01*
X90238000Y-44831285D01*
X90285619Y-44783666D01*
X90285619Y-44402714D02*
X90238000Y-44355095D01*
X90190380Y-44259857D01*
X90190380Y-44021761D01*
X90238000Y-43926523D01*
X90285619Y-43878904D01*
X90380857Y-43831285D01*
X90476095Y-43831285D01*
X90618952Y-43878904D01*
X91190380Y-44450333D01*
X91190380Y-43831285D01*
%TO.C,C1*%
X91095142Y-52657666D02*
X91142761Y-52705285D01*
X91190380Y-52848142D01*
X91190380Y-52943380D01*
X91142761Y-53086238D01*
X91047523Y-53181476D01*
X90952285Y-53229095D01*
X90761809Y-53276714D01*
X90618952Y-53276714D01*
X90428476Y-53229095D01*
X90333238Y-53181476D01*
X90238000Y-53086238D01*
X90190380Y-52943380D01*
X90190380Y-52848142D01*
X90238000Y-52705285D01*
X90285619Y-52657666D01*
X91190380Y-51705285D02*
X91190380Y-52276714D01*
X91190380Y-51991000D02*
X90190380Y-51991000D01*
X90333238Y-52086238D01*
X90428476Y-52181476D01*
X90476095Y-52276714D01*
%TO.C,A1*%
X87233214Y-62460166D02*
X87709404Y-62460166D01*
X87137976Y-62745880D02*
X87471309Y-61745880D01*
X87804642Y-62745880D01*
X88661785Y-62745880D02*
X88090357Y-62745880D01*
X88376071Y-62745880D02*
X88376071Y-61745880D01*
X88280833Y-61888738D01*
X88185595Y-61983976D01*
X88090357Y-62031595D01*
X93948857Y-74969666D02*
X94425047Y-74969666D01*
X93853619Y-75255380D02*
X94186952Y-74255380D01*
X94520285Y-75255380D01*
X94853619Y-75255380D02*
X94853619Y-74588714D01*
X94853619Y-74779190D02*
X94901238Y-74683952D01*
X94948857Y-74636333D01*
X95044095Y-74588714D01*
X95139333Y-74588714D01*
X95901238Y-75255380D02*
X95901238Y-74255380D01*
X95901238Y-75207761D02*
X95806000Y-75255380D01*
X95615523Y-75255380D01*
X95520285Y-75207761D01*
X95472666Y-75160142D01*
X95425047Y-75064904D01*
X95425047Y-74779190D01*
X95472666Y-74683952D01*
X95520285Y-74636333D01*
X95615523Y-74588714D01*
X95806000Y-74588714D01*
X95901238Y-74636333D01*
X96806000Y-74588714D02*
X96806000Y-75255380D01*
X96377428Y-74588714D02*
X96377428Y-75112523D01*
X96425047Y-75207761D01*
X96520285Y-75255380D01*
X96663142Y-75255380D01*
X96758380Y-75207761D01*
X96806000Y-75160142D01*
X97282190Y-75255380D02*
X97282190Y-74588714D01*
X97282190Y-74255380D02*
X97234571Y-74303000D01*
X97282190Y-74350619D01*
X97329809Y-74303000D01*
X97282190Y-74255380D01*
X97282190Y-74350619D01*
X97758380Y-74588714D02*
X97758380Y-75255380D01*
X97758380Y-74683952D02*
X97806000Y-74636333D01*
X97901238Y-74588714D01*
X98044095Y-74588714D01*
X98139333Y-74636333D01*
X98186952Y-74731571D01*
X98186952Y-75255380D01*
X98806000Y-75255380D02*
X98710761Y-75207761D01*
X98663142Y-75160142D01*
X98615523Y-75064904D01*
X98615523Y-74779190D01*
X98663142Y-74683952D01*
X98710761Y-74636333D01*
X98806000Y-74588714D01*
X98948857Y-74588714D01*
X99044095Y-74636333D01*
X99091714Y-74683952D01*
X99139333Y-74779190D01*
X99139333Y-75064904D01*
X99091714Y-75160142D01*
X99044095Y-75207761D01*
X98948857Y-75255380D01*
X98806000Y-75255380D01*
X99329809Y-75350619D02*
X100091714Y-75350619D01*
X100329809Y-75255380D02*
X100329809Y-74255380D01*
X100901238Y-75255380D01*
X100901238Y-74255380D01*
X101806000Y-75255380D02*
X101806000Y-74731571D01*
X101758380Y-74636333D01*
X101663142Y-74588714D01*
X101472666Y-74588714D01*
X101377428Y-74636333D01*
X101806000Y-75207761D02*
X101710761Y-75255380D01*
X101472666Y-75255380D01*
X101377428Y-75207761D01*
X101329809Y-75112523D01*
X101329809Y-75017285D01*
X101377428Y-74922047D01*
X101472666Y-74874428D01*
X101710761Y-74874428D01*
X101806000Y-74826809D01*
X102282190Y-74588714D02*
X102282190Y-75255380D01*
X102282190Y-74683952D02*
X102329809Y-74636333D01*
X102425047Y-74588714D01*
X102567904Y-74588714D01*
X102663142Y-74636333D01*
X102710761Y-74731571D01*
X102710761Y-75255380D01*
X103329809Y-75255380D02*
X103234571Y-75207761D01*
X103186952Y-75160142D01*
X103139333Y-75064904D01*
X103139333Y-74779190D01*
X103186952Y-74683952D01*
X103234571Y-74636333D01*
X103329809Y-74588714D01*
X103472666Y-74588714D01*
X103567904Y-74636333D01*
X103615523Y-74683952D01*
X103663142Y-74779190D01*
X103663142Y-75064904D01*
X103615523Y-75160142D01*
X103567904Y-75207761D01*
X103472666Y-75255380D01*
X103329809Y-75255380D01*
X69066000Y-109291380D02*
X69066000Y-108291380D01*
X69399333Y-109005666D01*
X69732666Y-108291380D01*
X69732666Y-109291380D01*
X70732666Y-109291380D02*
X70161238Y-109291380D01*
X70446952Y-109291380D02*
X70446952Y-108291380D01*
X70351714Y-108434238D01*
X70256476Y-108529476D01*
X70161238Y-108577095D01*
X71161238Y-109196142D02*
X71208857Y-109243761D01*
X71161238Y-109291380D01*
X71113619Y-109243761D01*
X71161238Y-109196142D01*
X71161238Y-109291380D01*
X71161238Y-108672333D02*
X71208857Y-108719952D01*
X71161238Y-108767571D01*
X71113619Y-108719952D01*
X71161238Y-108672333D01*
X71161238Y-108767571D01*
X72875523Y-108291380D02*
X72399333Y-108291380D01*
X72351714Y-108767571D01*
X72399333Y-108719952D01*
X72494571Y-108672333D01*
X72732666Y-108672333D01*
X72827904Y-108719952D01*
X72875523Y-108767571D01*
X72923142Y-108862809D01*
X72923142Y-109100904D01*
X72875523Y-109196142D01*
X72827904Y-109243761D01*
X72732666Y-109291380D01*
X72494571Y-109291380D01*
X72399333Y-109243761D01*
X72351714Y-109196142D01*
X73399333Y-109243761D02*
X73399333Y-109291380D01*
X73351714Y-109386619D01*
X73304095Y-109434238D01*
X74256476Y-108291380D02*
X74066000Y-108291380D01*
X73970761Y-108339000D01*
X73923142Y-108386619D01*
X73827904Y-108529476D01*
X73780285Y-108719952D01*
X73780285Y-109100904D01*
X73827904Y-109196142D01*
X73875523Y-109243761D01*
X73970761Y-109291380D01*
X74161238Y-109291380D01*
X74256476Y-109243761D01*
X74304095Y-109196142D01*
X74351714Y-109100904D01*
X74351714Y-108862809D01*
X74304095Y-108767571D01*
X74256476Y-108719952D01*
X74161238Y-108672333D01*
X73970761Y-108672333D01*
X73875523Y-108719952D01*
X73827904Y-108767571D01*
X73780285Y-108862809D01*
X75542190Y-109291380D02*
X75542190Y-108291380D01*
X75875523Y-109005666D01*
X76208857Y-108291380D01*
X76208857Y-109291380D01*
X76637428Y-108386619D02*
X76685047Y-108339000D01*
X76780285Y-108291380D01*
X77018380Y-108291380D01*
X77113619Y-108339000D01*
X77161238Y-108386619D01*
X77208857Y-108481857D01*
X77208857Y-108577095D01*
X77161238Y-108719952D01*
X76589809Y-109291380D01*
X77208857Y-109291380D01*
X77637428Y-109196142D02*
X77685047Y-109243761D01*
X77637428Y-109291380D01*
X77589809Y-109243761D01*
X77637428Y-109196142D01*
X77637428Y-109291380D01*
X77637428Y-108672333D02*
X77685047Y-108719952D01*
X77637428Y-108767571D01*
X77589809Y-108719952D01*
X77637428Y-108672333D01*
X77637428Y-108767571D01*
X78923142Y-109291380D02*
X79113619Y-109291380D01*
X79208857Y-109243761D01*
X79256476Y-109196142D01*
X79351714Y-109053285D01*
X79399333Y-108862809D01*
X79399333Y-108481857D01*
X79351714Y-108386619D01*
X79304095Y-108339000D01*
X79208857Y-108291380D01*
X79018380Y-108291380D01*
X78923142Y-108339000D01*
X78875523Y-108386619D01*
X78827904Y-108481857D01*
X78827904Y-108719952D01*
X78875523Y-108815190D01*
X78923142Y-108862809D01*
X79018380Y-108910428D01*
X79208857Y-108910428D01*
X79304095Y-108862809D01*
X79351714Y-108815190D01*
X79399333Y-108719952D01*
X79875523Y-109243761D02*
X79875523Y-109291380D01*
X79827904Y-109386619D01*
X79780285Y-109434238D01*
X80827904Y-109291380D02*
X80256476Y-109291380D01*
X80542190Y-109291380D02*
X80542190Y-108291380D01*
X80446952Y-108434238D01*
X80351714Y-108529476D01*
X80256476Y-108577095D01*
X81446952Y-108291380D02*
X81542190Y-108291380D01*
X81637428Y-108339000D01*
X81685047Y-108386619D01*
X81732666Y-108481857D01*
X81780285Y-108672333D01*
X81780285Y-108910428D01*
X81732666Y-109100904D01*
X81685047Y-109196142D01*
X81637428Y-109243761D01*
X81542190Y-109291380D01*
X81446952Y-109291380D01*
X81351714Y-109243761D01*
X81304095Y-109196142D01*
X81256476Y-109100904D01*
X81208857Y-108910428D01*
X81208857Y-108672333D01*
X81256476Y-108481857D01*
X81304095Y-108386619D01*
X81351714Y-108339000D01*
X81446952Y-108291380D01*
X82970761Y-108767571D02*
X83304095Y-108767571D01*
X83446952Y-109291380D02*
X82970761Y-109291380D01*
X82970761Y-108291380D01*
X83446952Y-108291380D01*
X83875523Y-109291380D02*
X83875523Y-108291380D01*
X84446952Y-109291380D01*
X84446952Y-108291380D01*
X84923142Y-108910428D02*
X85685047Y-108910428D01*
X86161238Y-109291380D02*
X86161238Y-108291380D01*
X86494571Y-109005666D01*
X86827904Y-108291380D01*
X86827904Y-109291380D01*
X87304095Y-109196142D02*
X87351714Y-109243761D01*
X87304095Y-109291380D01*
X87256476Y-109243761D01*
X87304095Y-109196142D01*
X87304095Y-109291380D01*
X87304095Y-108672333D02*
X87351714Y-108719952D01*
X87304095Y-108767571D01*
X87256476Y-108719952D01*
X87304095Y-108672333D01*
X87304095Y-108767571D01*
X88208857Y-108624714D02*
X88208857Y-109291380D01*
X87970761Y-108243761D02*
X87732666Y-108958047D01*
X88351714Y-108958047D01*
X89446952Y-109243761D02*
X89589809Y-109291380D01*
X89827904Y-109291380D01*
X89923142Y-109243761D01*
X89970761Y-109196142D01*
X90018380Y-109100904D01*
X90018380Y-109005666D01*
X89970761Y-108910428D01*
X89923142Y-108862809D01*
X89827904Y-108815190D01*
X89637428Y-108767571D01*
X89542190Y-108719952D01*
X89494571Y-108672333D01*
X89446952Y-108577095D01*
X89446952Y-108481857D01*
X89494571Y-108386619D01*
X89542190Y-108339000D01*
X89637428Y-108291380D01*
X89875523Y-108291380D01*
X90018380Y-108339000D01*
X91018380Y-109291380D02*
X90685047Y-108815190D01*
X90446952Y-109291380D02*
X90446952Y-108291380D01*
X90827904Y-108291380D01*
X90923142Y-108339000D01*
X90970761Y-108386619D01*
X91018380Y-108481857D01*
X91018380Y-108624714D01*
X90970761Y-108719952D01*
X90923142Y-108767571D01*
X90827904Y-108815190D01*
X90446952Y-108815190D01*
X91304095Y-108291380D02*
X91637428Y-109291380D01*
X91970761Y-108291380D01*
X92304095Y-109196142D02*
X92351714Y-109243761D01*
X92304095Y-109291380D01*
X92256476Y-109243761D01*
X92304095Y-109196142D01*
X92304095Y-109291380D01*
X92304095Y-108672333D02*
X92351714Y-108719952D01*
X92304095Y-108767571D01*
X92256476Y-108719952D01*
X92304095Y-108672333D01*
X92304095Y-108767571D01*
X93446952Y-108291380D02*
X94066000Y-108291380D01*
X93732666Y-108672333D01*
X93875523Y-108672333D01*
X93970761Y-108719952D01*
X94018380Y-108767571D01*
X94066000Y-108862809D01*
X94066000Y-109100904D01*
X94018380Y-109196142D01*
X93970761Y-109243761D01*
X93875523Y-109291380D01*
X93589809Y-109291380D01*
X93494571Y-109243761D01*
X93446952Y-109196142D01*
X95827904Y-109291380D02*
X95494571Y-108815190D01*
X95256476Y-109291380D02*
X95256476Y-108291380D01*
X95637428Y-108291380D01*
X95732666Y-108339000D01*
X95780285Y-108386619D01*
X95827904Y-108481857D01*
X95827904Y-108624714D01*
X95780285Y-108719952D01*
X95732666Y-108767571D01*
X95637428Y-108815190D01*
X95256476Y-108815190D01*
X96589809Y-108767571D02*
X96256476Y-108767571D01*
X96256476Y-109291380D02*
X96256476Y-108291380D01*
X96732666Y-108291380D01*
X97113619Y-109196142D02*
X97161238Y-109243761D01*
X97113619Y-109291380D01*
X97066000Y-109243761D01*
X97113619Y-109196142D01*
X97113619Y-109291380D01*
X97113619Y-108672333D02*
X97161238Y-108719952D01*
X97113619Y-108767571D01*
X97066000Y-108719952D01*
X97113619Y-108672333D01*
X97113619Y-108767571D01*
X97542190Y-108386619D02*
X97589809Y-108339000D01*
X97685047Y-108291380D01*
X97923142Y-108291380D01*
X98018380Y-108339000D01*
X98066000Y-108386619D01*
X98113619Y-108481857D01*
X98113619Y-108577095D01*
X98066000Y-108719952D01*
X97494571Y-109291380D01*
X98113619Y-109291380D01*
%TD*%
M02*
