M48
; DRILL file {KiCad (5.1.10)-1} date 07/11/21 18:10:33
; FORMAT={-:-/ absolute / inch / decimal}
; #@! TF.CreationDate,2021-07-11T18:10:33+05:30
; #@! TF.GenerationSoftware,Kicad,Pcbnew,(5.1.10)-1
; #@! TF.FileFunction,Plated,1,2,PTH
FMAT,2
INCH
T1C0.0315
T2C0.0354
T3C0.0394
T4C0.0433
T5C0.0512
%
G90
G05
T1
X2.8Y-1.8
X2.8Y-2.2
X2.905Y-3.305
X2.905Y-3.405
X2.905Y-3.505
X2.905Y-3.605
X2.905Y-3.705
X2.905Y-3.805
X2.905Y-3.905
X2.905Y-4.005
X2.9875Y-1.805
X2.9875Y-2.205
X3.205Y-3.305
X3.205Y-3.405
X3.205Y-3.505
X3.205Y-3.605
X3.205Y-3.705
X3.205Y-3.805
X3.205Y-3.905
X3.205Y-4.005
X3.72Y-1.6581
X3.72Y-1.855
X3.72Y-1.9681
X3.72Y-2.165
X4.3625Y-3.66
X4.3625Y-4.06
X4.5375Y-3.665
X4.5375Y-4.065
X4.54Y-3.145
X4.54Y-3.545
T2
X4.8325Y-3.1575
X4.8325Y-3.2575
X4.835Y-3.5275
X4.835Y-3.6275
X4.835Y-3.86
X4.835Y-3.96
T3
X2.5375Y-2.53
X2.5375Y-2.63
X2.5375Y-2.73
X2.985Y-2.46
X2.985Y-2.56
X2.985Y-2.66
X2.985Y-2.76
X3.235Y-2.645
X3.235Y-2.745
X3.58Y-2.44
X3.58Y-2.54
X3.58Y-2.64
X3.58Y-2.74
X3.58Y-2.84
X3.58Y-2.94
X3.58Y-3.04
X3.58Y-3.14
X3.58Y-3.24
X3.58Y-3.34
X3.58Y-3.44
X3.58Y-3.54
X3.58Y-3.64
X3.58Y-3.74
X3.58Y-3.84
X4.18Y-2.44
X4.18Y-2.54
X4.18Y-2.64
X4.18Y-2.74
X4.18Y-2.84
X4.18Y-2.94
X4.18Y-3.04
X4.18Y-3.14
X4.18Y-3.24
X4.18Y-3.34
X4.18Y-3.44
X4.18Y-3.54
X4.18Y-3.64
X4.18Y-3.74
X4.18Y-3.84
X4.5025Y-1.9225
X4.5025Y-2.0209
X4.535Y-2.55
X4.535Y-2.65
X4.535Y-2.75
X4.535Y-2.85
X4.535Y-2.95
T4
X3.2025Y-2.0675
X3.3025Y-2.0675
X3.4025Y-2.0675
T5
X2.5625Y-3.23
X2.5625Y-3.4269
X2.5675Y-3.6775
X2.5675Y-3.8744
X4.0231Y-1.965
X4.22Y-1.965
T0
M30
